<svg width="1216" height="1216" viewBox="0 0 1216 1216" fill="none" xmlns="http://www.w3.org/2000/svg">
<path d="M22.7741 1.31795C12.2741 4.81795 2.77409 15.418 0.574095 26.1179C-3.72591 46.7179 16.8741 67.3179 37.4741 63.0179C52.9741 59.8179 64.9741 44.0179 63.4741 29.1179C62.3741 18.618 54.4741 7.81795 44.4741 2.91795C38.3741 0.0179481 28.9741 -0.682052 22.7741 1.31795Z" fill="#37394A"/>
<path d="M150.774 1.31783C135.674 6.31783 125.474 22.9178 128.574 37.5178C131.074 49.4178 142.174 60.5178 153.974 63.0178C173.374 67.1178 193.474 48.8178 191.474 29.1178C190.374 18.6178 182.474 7.81783 172.474 2.91783C166.374 0.0178335 156.974 -0.682166 150.774 1.31783Z" fill="#37394A"/>
<path d="M278.774 1.31795C268.274 4.81795 258.774 15.418 256.574 26.1179C252.274 46.7179 272.874 67.3179 293.474 63.0179C308.974 59.8179 320.974 44.0179 319.474 29.1179C318.374 18.618 310.474 7.81795 300.474 2.91795C294.374 0.0179481 284.974 -0.682052 278.774 1.31795Z" fill="#37394A"/>
<path d="M406.774 1.31795C396.274 4.81795 386.774 15.418 384.574 26.1179C380.274 46.7179 400.874 67.3179 421.474 63.0179C436.974 59.8179 448.974 44.0179 447.474 29.1179C446.374 18.618 438.474 7.81795 428.474 2.91795C422.374 0.0179481 412.974 -0.682052 406.774 1.31795Z" fill="#37394A"/>
<path d="M534.774 1.31795C524.274 4.81795 514.774 15.418 512.574 26.1179C508.274 46.7179 528.874 67.3179 549.474 63.0179C564.974 59.8179 576.974 44.0179 575.474 29.1179C574.374 18.618 566.474 7.81795 556.474 2.91795C550.374 0.0179481 540.974 -0.682052 534.774 1.31795Z" fill="#37394A"/>
<path d="M662.774 1.31795C652.274 4.81795 642.774 15.418 640.574 26.1179C636.274 46.7179 656.874 67.3179 677.474 63.0179C692.974 59.8179 704.974 44.0179 703.474 29.1179C702.374 18.618 694.474 7.81795 684.474 2.91795C678.374 0.0179481 668.974 -0.682052 662.774 1.31795Z" fill="#37394A"/>
<path d="M790.774 1.31795C780.274 4.81795 770.774 15.418 768.574 26.1179C764.274 46.7179 784.874 67.3179 805.474 63.0179C820.974 59.8179 832.974 44.0179 831.474 29.1179C830.374 18.618 822.474 7.81795 812.474 2.91795C806.374 0.0179481 796.974 -0.682052 790.774 1.31795Z" fill="#37394A"/>
<path d="M918.774 1.31795C908.274 4.81795 898.774 15.418 896.574 26.1179C892.274 46.7179 912.874 67.3179 933.474 63.0179C948.974 59.8179 960.974 44.0179 959.474 29.1179C958.374 18.618 950.474 7.81795 940.474 2.91795C934.374 0.0179481 924.974 -0.682052 918.774 1.31795Z" fill="#37394A"/>
<path d="M1046.77 1.3179C1036.27 4.8179 1026.77 15.4179 1024.57 26.1179C1022.07 37.8179 1027.77 50.5179 1038.77 58.0179C1049.47 65.4179 1061.67 65.5179 1072.47 58.3179C1090.17 46.5179 1092.57 24.5179 1077.77 9.8179C1069.27 1.2179 1057.07 -2.0821 1046.77 1.3179Z" fill="#37394A"/>
<path d="M1174.77 1.3179C1164.27 4.8179 1154.77 15.4179 1152.57 26.1179C1150.07 37.8179 1155.77 50.5179 1166.77 58.0179C1177.47 65.4179 1189.67 65.5179 1200.47 58.3179C1218.17 46.5179 1220.57 24.5179 1205.77 9.8179C1197.27 1.2179 1185.07 -2.0821 1174.77 1.3179Z" fill="#37394A"/>
<path d="M22.7741 129.318C12.2741 132.818 2.77409 143.418 0.574095 154.118C-3.72591 174.718 16.8741 195.318 37.4741 191.018C52.9741 187.818 64.9741 172.018 63.4741 157.118C62.3741 146.618 54.4741 135.818 44.4741 130.918C38.3741 128.018 28.9741 127.318 22.7741 129.318Z" fill="#37394A"/>
<path d="M150.774 129.318C135.674 134.318 125.474 150.918 128.574 165.518C131.074 177.418 142.174 188.518 153.974 191.018C173.374 195.118 193.474 176.818 191.474 157.118C190.374 146.618 182.474 135.818 172.474 130.918C166.374 128.018 156.974 127.318 150.774 129.318Z" fill="#37394A"/>
<path d="M278.774 129.318C268.274 132.818 258.774 143.418 256.574 154.118C252.274 174.718 272.874 195.318 293.474 191.018C308.974 187.818 320.974 172.018 319.474 157.118C318.374 146.618 310.474 135.818 300.474 130.918C294.374 128.018 284.974 127.318 278.774 129.318Z" fill="#37394A"/>
<path d="M406.774 129.318C396.274 132.818 386.774 143.418 384.574 154.118C380.274 174.718 400.874 195.318 421.474 191.018C436.974 187.818 448.974 172.018 447.474 157.118C446.374 146.618 438.474 135.818 428.474 130.918C422.374 128.018 412.974 127.318 406.774 129.318Z" fill="#37394A"/>
<path d="M534.774 129.318C524.274 132.818 514.774 143.418 512.574 154.118C508.274 174.718 528.874 195.318 549.474 191.018C564.974 187.818 576.974 172.018 575.474 157.118C574.374 146.618 566.474 135.818 556.474 130.918C550.374 128.018 540.974 127.318 534.774 129.318Z" fill="#37394A"/>
<path d="M662.774 129.318C652.274 132.818 642.774 143.418 640.574 154.118C636.274 174.718 656.874 195.318 677.474 191.018C692.974 187.818 704.974 172.018 703.474 157.118C702.374 146.618 694.474 135.818 684.474 130.918C678.374 128.018 668.974 127.318 662.774 129.318Z" fill="#37394A"/>
<path d="M790.774 129.318C780.274 132.818 770.774 143.418 768.574 154.118C764.274 174.718 784.874 195.318 805.474 191.018C820.974 187.818 832.974 172.018 831.474 157.118C830.374 146.618 822.474 135.818 812.474 130.918C806.374 128.018 796.974 127.318 790.774 129.318Z" fill="#37394A"/>
<path d="M918.774 129.318C908.274 132.818 898.774 143.418 896.574 154.118C892.274 174.718 912.874 195.318 933.474 191.018C948.974 187.818 960.974 172.018 959.474 157.118C958.374 146.618 950.474 135.818 940.474 130.918C934.374 128.018 924.974 127.318 918.774 129.318Z" fill="#37394A"/>
<path d="M1046.77 129.318C1036.27 132.818 1026.77 143.418 1024.57 154.118C1022.07 165.818 1027.77 178.518 1038.77 186.018C1049.47 193.418 1061.67 193.518 1072.47 186.318C1090.17 174.518 1092.57 152.518 1077.77 137.818C1069.27 129.218 1057.07 125.918 1046.77 129.318Z" fill="#37394A"/>
<path d="M1174.77 129.318C1164.27 132.818 1154.77 143.418 1152.57 154.118C1150.07 165.818 1155.77 178.518 1166.77 186.018C1177.47 193.418 1189.67 193.518 1200.47 186.318C1218.17 174.518 1220.57 152.518 1205.77 137.818C1197.27 129.218 1185.07 125.918 1174.77 129.318Z" fill="#37394A"/>
<path d="M22.7741 257.318C12.2741 260.818 2.77409 271.418 0.574095 282.118C-3.72591 302.718 16.8741 323.318 37.4741 319.018C52.9741 315.818 64.9741 300.018 63.4741 285.118C62.3741 274.618 54.4741 263.818 44.4741 258.918C38.3741 256.018 28.9741 255.318 22.7741 257.318Z" fill="#37394A"/>
<path d="M150.774 257.318C140.274 260.818 130.774 271.418 128.574 282.118C124.274 302.718 144.874 323.318 165.474 319.018C180.974 315.818 192.974 300.018 191.474 285.118C190.374 274.618 182.474 263.818 172.474 258.918C166.374 256.018 156.974 255.318 150.774 257.318Z" fill="#37394A"/>
<path d="M278.774 257.318C268.274 260.818 258.774 271.418 256.574 282.118C252.274 302.718 272.874 323.318 293.474 319.018C308.974 315.818 320.974 300.018 319.474 285.118C318.374 274.618 310.474 263.818 300.474 258.918C294.374 256.018 284.974 255.318 278.774 257.318Z" fill="#37394A"/>
<path d="M406.774 257.318C396.274 260.818 386.774 271.418 384.574 282.118C380.274 302.718 400.874 323.318 421.474 319.018C436.974 315.818 448.974 300.018 447.474 285.118C446.374 274.618 438.474 263.818 428.474 258.918C422.374 256.018 412.974 255.318 406.774 257.318Z" fill="#37394A"/>
<path d="M534.774 257.318C524.274 260.818 514.774 271.418 512.574 282.118C508.274 302.718 528.874 323.318 549.474 319.018C564.974 315.818 576.974 300.018 575.474 285.118C574.374 274.618 566.474 263.818 556.474 258.918C550.374 256.018 540.974 255.318 534.774 257.318Z" fill="#37394A"/>
<path d="M662.774 257.318C652.274 260.818 642.774 271.418 640.574 282.118C636.274 302.718 656.874 323.318 677.474 319.018C692.974 315.818 704.974 300.018 703.474 285.118C702.374 274.618 694.474 263.818 684.474 258.918C678.374 256.018 668.974 255.318 662.774 257.318Z" fill="#37394A"/>
<path d="M790.774 257.318C780.274 260.818 770.774 271.418 768.574 282.118C764.274 302.718 784.874 323.318 805.474 319.018C820.974 315.818 832.974 300.018 831.474 285.118C830.374 274.618 822.474 263.818 812.474 258.918C806.374 256.018 796.974 255.318 790.774 257.318Z" fill="#37394A"/>
<path d="M918.774 257.318C908.274 260.818 898.774 271.418 896.574 282.118C892.274 302.718 912.874 323.318 933.474 319.018C948.974 315.818 960.974 300.018 959.474 285.118C958.374 274.618 950.474 263.818 940.474 258.918C934.374 256.018 924.974 255.318 918.774 257.318Z" fill="#37394A"/>
<path d="M1046.77 257.318C1036.27 260.818 1026.77 271.418 1024.57 282.118C1020.27 302.718 1040.87 323.318 1061.47 319.018C1076.97 315.818 1088.97 300.018 1087.47 285.118C1086.37 274.618 1078.47 263.818 1068.47 258.918C1062.37 256.018 1052.97 255.318 1046.77 257.318Z" fill="#37394A"/>
<path d="M1174.77 257.318C1164.27 260.818 1154.77 271.418 1152.57 282.118C1148.27 302.718 1168.87 323.318 1189.47 319.018C1204.97 315.818 1216.97 300.018 1215.47 285.118C1214.37 274.618 1206.47 263.818 1196.47 258.918C1190.37 256.018 1180.97 255.318 1174.77 257.318Z" fill="#37394A"/>
<path d="M22.7741 385.318C12.2741 388.818 2.77409 399.418 0.574095 410.118C-3.72591 430.718 16.8741 451.318 37.4741 447.018C52.9741 443.818 64.9741 428.018 63.4741 413.118C62.3741 402.618 54.4741 391.818 44.4741 386.918C38.3741 384.018 28.9741 383.318 22.7741 385.318Z" fill="#37394A"/>
<path d="M150.774 385.318C140.274 388.818 130.774 399.418 128.574 410.118C124.274 430.718 144.874 451.318 165.474 447.018C180.974 443.818 192.974 428.018 191.474 413.118C190.374 402.618 182.474 391.818 172.474 386.918C166.374 384.018 156.974 383.318 150.774 385.318Z" fill="#37394A"/>
<path d="M278.774 385.318C268.274 388.818 258.774 399.418 256.574 410.118C252.274 430.718 272.874 451.318 293.474 447.018C308.974 443.818 320.974 428.018 319.474 413.118C318.374 402.618 310.474 391.818 300.474 386.918C294.374 384.018 284.974 383.318 278.774 385.318Z" fill="#37394A"/>
<path d="M406.774 385.318C396.274 388.818 386.774 399.418 384.574 410.118C380.274 430.718 400.874 451.318 421.474 447.018C436.974 443.818 448.974 428.018 447.474 413.118C446.374 402.618 438.474 391.818 428.474 386.918C422.374 384.018 412.974 383.318 406.774 385.318Z" fill="#37394A"/>
<path d="M534.774 385.318C524.274 388.818 514.774 399.418 512.574 410.118C508.274 430.718 528.874 451.318 549.474 447.018C564.974 443.818 576.974 428.018 575.474 413.118C574.374 402.618 566.474 391.818 556.474 386.918C550.374 384.018 540.974 383.318 534.774 385.318Z" fill="#37394A"/>
<path d="M662.774 385.318C652.274 388.818 642.774 399.418 640.574 410.118C636.274 430.718 656.874 451.318 677.474 447.018C692.974 443.818 704.974 428.018 703.474 413.118C702.374 402.618 694.474 391.818 684.474 386.918C678.374 384.018 668.974 383.318 662.774 385.318Z" fill="#37394A"/>
<path d="M790.774 385.318C780.274 388.818 770.774 399.418 768.574 410.118C764.274 430.718 784.874 451.318 805.474 447.018C820.974 443.818 832.974 428.018 831.474 413.118C830.374 402.618 822.474 391.818 812.474 386.918C806.374 384.018 796.974 383.318 790.774 385.318Z" fill="#37394A"/>
<path d="M918.774 385.318C908.274 388.818 898.774 399.418 896.574 410.118C892.274 430.718 912.874 451.318 933.474 447.018C948.974 443.818 960.974 428.018 959.474 413.118C958.374 402.618 950.474 391.818 940.474 386.918C934.374 384.018 924.974 383.318 918.774 385.318Z" fill="#37394A"/>
<path d="M1046.77 385.318C1036.27 388.818 1026.77 399.418 1024.57 410.118C1020.27 430.718 1040.87 451.318 1061.47 447.018C1076.97 443.818 1088.97 428.018 1087.47 413.118C1086.37 402.618 1078.47 391.818 1068.47 386.918C1062.37 384.018 1052.97 383.318 1046.77 385.318Z" fill="#37394A"/>
<path d="M1174.77 385.318C1164.27 388.818 1154.77 399.418 1152.57 410.118C1148.27 430.718 1168.87 451.318 1189.47 447.018C1204.97 443.818 1216.97 428.018 1215.47 413.118C1214.37 402.618 1206.47 391.818 1196.47 386.918C1190.37 384.018 1180.97 383.318 1174.77 385.318Z" fill="#37394A"/>
<path d="M22.7741 513.318C12.2741 516.818 2.77409 527.418 0.574095 538.118C-3.72591 558.718 16.8741 579.318 37.4741 575.018C52.9741 571.818 64.9741 556.018 63.4741 541.118C62.3741 530.618 54.4741 519.818 44.4741 514.918C38.3741 512.018 28.9741 511.318 22.7741 513.318Z" fill="#37394A"/>
<path d="M150.774 513.318C140.274 516.818 130.774 527.418 128.574 538.118C124.274 558.718 144.874 579.318 165.474 575.018C180.974 571.818 192.974 556.018 191.474 541.118C190.374 530.618 182.474 519.818 172.474 514.918C166.374 512.018 156.974 511.318 150.774 513.318Z" fill="#37394A"/>
<path d="M278.774 513.318C268.274 516.818 258.774 527.418 256.574 538.118C252.274 558.718 272.874 579.318 293.474 575.018C308.974 571.818 320.974 556.018 319.474 541.118C318.374 530.618 310.474 519.818 300.474 514.918C294.374 512.018 284.974 511.318 278.774 513.318Z" fill="#37394A"/>
<path d="M406.774 513.318C396.274 516.818 386.774 527.418 384.574 538.118C380.274 558.718 400.874 579.318 421.474 575.018C436.974 571.818 448.974 556.018 447.474 541.118C446.374 530.618 438.474 519.818 428.474 514.918C422.374 512.018 412.974 511.318 406.774 513.318Z" fill="#37394A"/>
<path d="M534.774 513.318C524.274 516.818 514.774 527.418 512.574 538.118C508.274 558.718 528.874 579.318 549.474 575.018C564.974 571.818 576.974 556.018 575.474 541.118C574.374 530.618 566.474 519.818 556.474 514.918C550.374 512.018 540.974 511.318 534.774 513.318Z" fill="#37394A"/>
<path d="M662.774 513.318C652.274 516.818 642.774 527.418 640.574 538.118C636.274 558.718 656.874 579.318 677.474 575.018C692.974 571.818 704.974 556.018 703.474 541.118C702.374 530.618 694.474 519.818 684.474 514.918C678.374 512.018 668.974 511.318 662.774 513.318Z" fill="#37394A"/>
<path d="M790.774 513.318C780.274 516.818 770.774 527.418 768.574 538.118C764.274 558.718 784.874 579.318 805.474 575.018C820.974 571.818 832.974 556.018 831.474 541.118C830.374 530.618 822.474 519.818 812.474 514.918C806.374 512.018 796.974 511.318 790.774 513.318Z" fill="#37394A"/>
<path d="M918.774 513.318C908.274 516.818 898.774 527.418 896.574 538.118C892.274 558.718 912.874 579.318 933.474 575.018C948.974 571.818 960.974 556.018 959.474 541.118C958.374 530.618 950.474 519.818 940.474 514.918C934.374 512.018 924.974 511.318 918.774 513.318Z" fill="#37394A"/>
<path d="M1046.77 513.318C1036.27 516.818 1026.77 527.418 1024.57 538.118C1020.27 558.718 1040.87 579.318 1061.47 575.018C1076.97 571.818 1088.97 556.018 1087.47 541.118C1086.37 530.618 1078.47 519.818 1068.47 514.918C1062.37 512.018 1052.97 511.318 1046.77 513.318Z" fill="#37394A"/>
<path d="M1174.77 513.318C1164.27 516.818 1154.77 527.418 1152.57 538.118C1148.27 558.718 1168.87 579.318 1189.47 575.018C1204.97 571.818 1216.97 556.018 1215.47 541.118C1214.37 530.618 1206.47 519.818 1196.47 514.918C1190.37 512.018 1180.97 511.318 1174.77 513.318Z" fill="#37394A"/>
<path d="M22.7741 641.318C12.2741 644.818 2.77409 655.418 0.574095 666.118C-3.72591 686.718 16.8741 707.318 37.4741 703.018C52.9741 699.818 64.9741 684.018 63.4741 669.118C62.3741 658.618 54.4741 647.818 44.4741 642.918C38.3741 640.018 28.9741 639.318 22.7741 641.318Z" fill="#37394A"/>
<path d="M150.774 641.318C140.274 644.818 130.774 655.418 128.574 666.118C124.274 686.718 144.874 707.318 165.474 703.018C180.974 699.818 192.974 684.018 191.474 669.118C190.374 658.618 182.474 647.818 172.474 642.918C166.374 640.018 156.974 639.318 150.774 641.318Z" fill="#37394A"/>
<path d="M278.774 641.318C268.274 644.818 258.774 655.418 256.574 666.118C252.274 686.718 272.874 707.318 293.474 703.018C308.974 699.818 320.974 684.018 319.474 669.118C318.374 658.618 310.474 647.818 300.474 642.918C294.374 640.018 284.974 639.318 278.774 641.318Z" fill="#37394A"/>
<path d="M406.774 641.318C396.274 644.818 386.774 655.418 384.574 666.118C380.274 686.718 400.874 707.318 421.474 703.018C436.974 699.818 448.974 684.018 447.474 669.118C446.374 658.618 438.474 647.818 428.474 642.918C422.374 640.018 412.974 639.318 406.774 641.318Z" fill="#37394A"/>
<path d="M534.774 641.318C524.274 644.818 514.774 655.418 512.574 666.118C508.274 686.718 528.874 707.318 549.474 703.018C564.974 699.818 576.974 684.018 575.474 669.118C574.374 658.618 566.474 647.818 556.474 642.918C550.374 640.018 540.974 639.318 534.774 641.318Z" fill="#37394A"/>
<path d="M662.774 641.318C652.274 644.818 642.774 655.418 640.574 666.118C636.274 686.718 656.874 707.318 677.474 703.018C692.974 699.818 704.974 684.018 703.474 669.118C702.374 658.618 694.474 647.818 684.474 642.918C678.374 640.018 668.974 639.318 662.774 641.318Z" fill="#37394A"/>
<path d="M790.774 641.318C780.274 644.818 770.774 655.418 768.574 666.118C764.274 686.718 784.874 707.318 805.474 703.018C820.974 699.818 832.974 684.018 831.474 669.118C830.374 658.618 822.474 647.818 812.474 642.918C806.374 640.018 796.974 639.318 790.774 641.318Z" fill="#37394A"/>
<path d="M918.774 641.318C908.274 644.818 898.774 655.418 896.574 666.118C892.274 686.718 912.874 707.318 933.474 703.018C948.974 699.818 960.974 684.018 959.474 669.118C958.374 658.618 950.474 647.818 940.474 642.918C934.374 640.018 924.974 639.318 918.774 641.318Z" fill="#37394A"/>
<path d="M1046.77 641.318C1036.27 644.818 1026.77 655.418 1024.57 666.118C1020.27 686.718 1040.87 707.318 1061.47 703.018C1076.97 699.818 1088.97 684.018 1087.47 669.118C1086.37 658.618 1078.47 647.818 1068.47 642.918C1062.37 640.018 1052.97 639.318 1046.77 641.318Z" fill="#37394A"/>
<path d="M1174.77 641.318C1164.27 644.818 1154.77 655.418 1152.57 666.118C1148.27 686.718 1168.87 707.318 1189.47 703.018C1204.97 699.818 1216.97 684.018 1215.47 669.118C1214.37 658.618 1206.47 647.818 1196.47 642.918C1190.37 640.018 1180.97 639.318 1174.77 641.318Z" fill="#37394A"/>
<path d="M22.7741 769.318C12.2741 772.818 2.77409 783.418 0.574095 794.118C-3.72591 814.718 16.8741 835.318 37.4741 831.018C52.9741 827.818 64.9741 812.018 63.4741 797.118C62.3741 786.618 54.4741 775.818 44.4741 770.918C38.3741 768.018 28.9741 767.318 22.7741 769.318Z" fill="#37394A"/>
<path d="M150.774 769.318C140.274 772.818 130.774 783.418 128.574 794.118C124.274 814.718 144.874 835.318 165.474 831.018C180.974 827.818 192.974 812.018 191.474 797.118C190.374 786.618 182.474 775.818 172.474 770.918C166.374 768.018 156.974 767.318 150.774 769.318Z" fill="#37394A"/>
<path d="M278.774 769.318C268.274 772.818 258.774 783.418 256.574 794.118C254.074 805.818 259.774 818.518 270.774 826.018C281.474 833.418 293.674 833.518 304.474 826.318C322.174 814.518 324.574 792.518 309.774 777.818C301.274 769.218 289.074 765.918 278.774 769.318Z" fill="#37394A"/>
<path d="M406.774 769.318C396.274 772.818 386.774 783.418 384.574 794.118C382.074 805.818 387.774 818.518 398.774 826.018C409.474 833.418 421.674 833.518 432.474 826.318C450.174 814.518 452.574 792.518 437.774 777.818C429.274 769.218 417.074 765.918 406.774 769.318Z" fill="#37394A"/>
<path d="M534.774 769.318C519.674 774.318 509.474 790.918 512.574 805.518C515.074 817.418 526.174 828.518 538.074 831.018C557.374 835.118 577.474 816.818 575.474 797.118C574.374 786.618 566.474 775.818 556.474 770.918C550.374 768.018 540.974 767.318 534.774 769.318Z" fill="#37394A"/>
<path d="M662.774 769.318C647.674 774.318 637.474 790.918 640.574 805.518C643.074 817.418 654.174 828.518 666.074 831.018C685.374 835.118 705.474 816.818 703.474 797.118C702.374 786.618 694.474 775.818 684.474 770.918C678.374 768.018 668.974 767.318 662.774 769.318Z" fill="#37394A"/>
<path d="M790.774 769.318C775.674 774.318 765.474 790.918 768.574 805.518C771.074 817.418 782.174 828.518 794.074 831.018C813.374 835.118 833.474 816.818 831.474 797.118C830.374 786.618 822.474 775.818 812.474 770.918C806.374 768.018 796.974 767.318 790.774 769.318Z" fill="#37394A"/>
<path d="M918.774 769.318C903.674 774.318 893.474 790.918 896.574 805.518C899.074 817.418 910.174 828.518 922.074 831.018C941.374 835.118 961.474 816.818 959.474 797.118C958.374 786.618 950.474 775.818 940.474 770.918C934.374 768.018 924.974 767.318 918.774 769.318Z" fill="#37394A"/>
<path d="M1046.77 769.318C1036.27 772.818 1026.77 783.418 1024.57 794.118C1020.27 814.718 1040.87 835.318 1061.47 831.018C1076.97 827.818 1088.97 812.018 1087.47 797.118C1086.37 786.618 1078.47 775.818 1068.47 770.918C1062.37 768.018 1052.97 767.318 1046.77 769.318Z" fill="#37394A"/>
<path d="M1174.77 769.318C1164.27 772.818 1154.77 783.418 1152.57 794.118C1148.27 814.718 1168.87 835.318 1189.47 831.018C1204.97 827.818 1216.97 812.018 1215.47 797.118C1214.37 786.618 1206.47 775.818 1196.47 770.918C1190.37 768.018 1180.97 767.318 1174.77 769.318Z" fill="#37394A"/>
<path d="M22.7741 897.318C12.2741 900.818 2.77409 911.418 0.574095 922.118C-3.72591 942.718 16.8741 963.318 37.4741 959.018C52.9741 955.818 64.9741 940.018 63.4741 925.118C62.3741 914.618 54.4741 903.818 44.4741 898.918C38.3741 896.018 28.9741 895.318 22.7741 897.318Z" fill="#37394A"/>
<path d="M150.774 897.318C140.274 900.818 130.774 911.418 128.574 922.118C124.274 942.718 144.874 963.318 165.474 959.018C180.974 955.818 192.974 940.018 191.474 925.118C190.374 914.618 182.474 903.818 172.474 898.918C166.374 896.018 156.974 895.318 150.774 897.318Z" fill="#37394A"/>
<path d="M278.774 897.318C268.274 900.818 258.774 911.418 256.574 922.118C254.074 933.818 259.774 946.518 270.774 954.018C281.474 961.418 293.674 961.518 304.474 954.318C322.174 942.518 324.574 920.518 309.774 905.818C301.274 897.218 289.074 893.918 278.774 897.318Z" fill="#37394A"/>
<path d="M406.774 897.318C396.274 900.818 386.774 911.418 384.574 922.118C382.074 933.818 387.774 946.518 398.774 954.018C409.474 961.418 421.674 961.518 432.474 954.318C450.174 942.518 452.574 920.518 437.774 905.818C429.274 897.218 417.074 893.918 406.774 897.318Z" fill="#37394A"/>
<path d="M534.774 897.318C519.674 902.318 509.474 918.918 512.574 933.518C515.074 945.418 526.174 956.518 538.074 959.018C557.374 963.118 577.474 944.818 575.474 925.118C574.374 914.618 566.474 903.818 556.474 898.918C550.374 896.018 540.974 895.318 534.774 897.318Z" fill="#37394A"/>
<path d="M662.774 897.318C647.674 902.318 637.474 918.918 640.574 933.518C643.074 945.418 654.174 956.518 666.074 959.018C685.374 963.118 705.474 944.818 703.474 925.118C702.374 914.618 694.474 903.818 684.474 898.918C678.374 896.018 668.974 895.318 662.774 897.318Z" fill="#37394A"/>
<path d="M790.774 897.318C775.674 902.318 765.474 918.918 768.574 933.518C771.074 945.418 782.174 956.518 794.074 959.018C813.374 963.118 833.474 944.818 831.474 925.118C830.374 914.618 822.474 903.818 812.474 898.918C806.374 896.018 796.974 895.318 790.774 897.318Z" fill="#37394A"/>
<path d="M918.774 897.318C903.674 902.318 893.474 918.918 896.574 933.518C899.074 945.418 910.174 956.518 922.074 959.018C941.374 963.118 961.474 944.818 959.474 925.118C958.374 914.618 950.474 903.818 940.474 898.918C934.374 896.018 924.974 895.318 918.774 897.318Z" fill="#37394A"/>
<path d="M1046.77 897.318C1036.27 900.818 1026.77 911.418 1024.57 922.118C1020.27 942.718 1040.87 963.318 1061.47 959.018C1076.97 955.818 1088.97 940.018 1087.47 925.118C1086.37 914.618 1078.47 903.818 1068.47 898.918C1062.37 896.018 1052.97 895.318 1046.77 897.318Z" fill="#37394A"/>
<path d="M1174.77 897.318C1164.27 900.818 1154.77 911.418 1152.57 922.118C1148.27 942.718 1168.87 963.318 1189.47 959.018C1204.97 955.818 1216.97 940.018 1215.47 925.118C1214.37 914.618 1206.47 903.818 1196.47 898.918C1190.37 896.018 1180.97 895.318 1174.77 897.318Z" fill="#37394A"/>
<path d="M22.7741 1025.32C12.2741 1028.82 2.77409 1039.42 0.574095 1050.12C-3.72591 1070.72 16.8741 1091.32 37.4741 1087.02C52.9741 1083.82 64.9741 1068.02 63.4741 1053.12C62.3741 1042.62 54.4741 1031.82 44.4741 1026.92C38.3741 1024.02 28.9741 1023.32 22.7741 1025.32Z" fill="#37394A"/>
<path d="M150.774 1025.32C140.274 1028.82 130.774 1039.42 128.574 1050.12C124.274 1070.72 144.874 1091.32 165.474 1087.02C180.974 1083.82 192.974 1068.02 191.474 1053.12C190.374 1042.62 182.474 1031.82 172.474 1026.92C166.374 1024.02 156.974 1023.32 150.774 1025.32Z" fill="#37394A"/>
<path d="M278.774 1025.32C268.274 1028.82 258.774 1039.42 256.574 1050.12C254.074 1061.82 259.774 1074.52 270.774 1082.02C281.474 1089.42 293.674 1089.52 304.474 1082.32C322.174 1070.52 324.574 1048.52 309.774 1033.82C301.274 1025.22 289.074 1021.92 278.774 1025.32Z" fill="#37394A"/>
<path d="M406.774 1025.32C396.274 1028.82 386.774 1039.42 384.574 1050.12C382.074 1061.82 387.774 1074.52 398.774 1082.02C409.474 1089.42 421.674 1089.52 432.474 1082.32C450.174 1070.52 452.574 1048.52 437.774 1033.82C429.274 1025.22 417.074 1021.92 406.774 1025.32Z" fill="#37394A"/>
<path d="M534.774 1025.32C524.274 1028.82 514.774 1039.42 512.574 1050.12C508.274 1070.72 528.874 1091.32 549.474 1087.02C564.974 1083.82 576.974 1068.02 575.474 1053.12C574.374 1042.62 566.474 1031.82 556.474 1026.92C550.374 1024.02 540.974 1023.32 534.774 1025.32Z" fill="#37394A"/>
<path d="M662.774 1025.32C652.274 1028.82 642.774 1039.42 640.574 1050.12C636.274 1070.72 656.874 1091.32 677.474 1087.02C692.974 1083.82 704.974 1068.02 703.474 1053.12C702.374 1042.62 694.474 1031.82 684.474 1026.92C678.374 1024.02 668.974 1023.32 662.774 1025.32Z" fill="#37394A"/>
<path d="M790.774 1025.32C780.274 1028.82 770.774 1039.42 768.574 1050.12C764.274 1070.72 784.874 1091.32 805.474 1087.02C820.974 1083.82 832.974 1068.02 831.474 1053.12C830.374 1042.62 822.474 1031.82 812.474 1026.92C806.374 1024.02 796.974 1023.32 790.774 1025.32Z" fill="#37394A"/>
<path d="M918.774 1025.32C908.274 1028.82 898.774 1039.42 896.574 1050.12C892.274 1070.72 912.874 1091.32 933.474 1087.02C948.974 1083.82 960.974 1068.02 959.474 1053.12C958.374 1042.62 950.474 1031.82 940.474 1026.92C934.374 1024.02 924.974 1023.32 918.774 1025.32Z" fill="#37394A"/>
<path d="M1046.77 1025.32C1036.27 1028.82 1026.77 1039.42 1024.57 1050.12C1020.27 1070.72 1040.87 1091.32 1061.47 1087.02C1076.97 1083.82 1088.97 1068.02 1087.47 1053.12C1086.37 1042.62 1078.47 1031.82 1068.47 1026.92C1062.37 1024.02 1052.97 1023.32 1046.77 1025.32Z" fill="#37394A"/>
<path d="M1174.77 1025.32C1164.27 1028.82 1154.77 1039.42 1152.57 1050.12C1148.27 1070.72 1168.87 1091.32 1189.47 1087.02C1204.97 1083.82 1216.97 1068.02 1215.47 1053.12C1214.37 1042.62 1206.47 1031.82 1196.47 1026.92C1190.37 1024.02 1180.97 1023.32 1174.77 1025.32Z" fill="#37394A"/>
<path d="M22.7741 1153.32C12.2741 1156.82 2.77409 1167.42 0.574095 1178.12C-3.72591 1198.72 16.8741 1219.32 37.4741 1215.02C52.9741 1211.82 64.9741 1196.02 63.4741 1181.12C62.3741 1170.62 54.4741 1159.82 44.4741 1154.92C38.3741 1152.02 28.9741 1151.32 22.7741 1153.32Z" fill="#37394A"/>
<path d="M150.774 1153.32C140.274 1156.82 130.774 1167.42 128.574 1178.12C124.274 1198.72 144.874 1219.32 165.474 1215.02C180.974 1211.82 192.974 1196.02 191.474 1181.12C190.374 1170.62 182.474 1159.82 172.474 1154.92C166.374 1152.02 156.974 1151.32 150.774 1153.32Z" fill="#37394A"/>
<path d="M278.774 1153.32C268.274 1156.82 258.774 1167.42 256.574 1178.12C252.274 1198.72 272.874 1219.32 293.474 1215.02C308.974 1211.82 320.974 1196.02 319.474 1181.12C318.374 1170.62 310.474 1159.82 300.474 1154.92C294.374 1152.02 284.974 1151.32 278.774 1153.32Z" fill="#37394A"/>
<path d="M406.774 1153.32C396.274 1156.82 386.774 1167.42 384.574 1178.12C380.274 1198.72 400.874 1219.32 421.474 1215.02C436.974 1211.82 448.974 1196.02 447.474 1181.12C446.374 1170.62 438.474 1159.82 428.474 1154.92C422.374 1152.02 412.974 1151.32 406.774 1153.32Z" fill="#37394A"/>
<path d="M534.774 1153.32C524.274 1156.82 514.774 1167.42 512.574 1178.12C508.274 1198.72 528.874 1219.32 549.474 1215.02C564.974 1211.82 576.974 1196.02 575.474 1181.12C574.374 1170.62 566.474 1159.82 556.474 1154.92C550.374 1152.02 540.974 1151.32 534.774 1153.32Z" fill="#37394A"/>
<path d="M662.774 1153.32C652.274 1156.82 642.774 1167.42 640.574 1178.12C636.274 1198.72 656.874 1219.32 677.474 1215.02C692.974 1211.82 704.974 1196.02 703.474 1181.12C702.374 1170.62 694.474 1159.82 684.474 1154.92C678.374 1152.02 668.974 1151.32 662.774 1153.32Z" fill="#37394A"/>
<path d="M790.774 1153.32C780.274 1156.82 770.774 1167.42 768.574 1178.12C764.274 1198.72 784.874 1219.32 805.474 1215.02C820.974 1211.82 832.974 1196.02 831.474 1181.12C830.374 1170.62 822.474 1159.82 812.474 1154.92C806.374 1152.02 796.974 1151.32 790.774 1153.32Z" fill="#37394A"/>
<path d="M918.774 1153.32C908.274 1156.82 898.774 1167.42 896.574 1178.12C892.274 1198.72 912.874 1219.32 933.474 1215.02C948.974 1211.82 960.974 1196.02 959.474 1181.12C958.374 1170.62 950.474 1159.82 940.474 1154.92C934.374 1152.02 924.974 1151.32 918.774 1153.32Z" fill="#37394A"/>
<path d="M1046.77 1153.32C1036.27 1156.82 1026.77 1167.42 1024.57 1178.12C1020.27 1198.72 1040.87 1219.32 1061.47 1215.02C1076.97 1211.82 1088.97 1196.02 1087.47 1181.12C1086.37 1170.62 1078.47 1159.82 1068.47 1154.92C1062.37 1152.02 1052.97 1151.32 1046.77 1153.32Z" fill="#37394A"/>
<path d="M1174.77 1153.32C1164.27 1156.82 1154.77 1167.42 1152.57 1178.12C1148.27 1198.72 1168.87 1219.32 1189.47 1215.02C1204.97 1211.82 1216.97 1196.02 1215.47 1181.12C1214.37 1170.62 1206.47 1159.82 1196.47 1154.92C1190.37 1152.02 1180.97 1151.32 1174.77 1153.32Z" fill="#37394A"/>
</svg>
